# ProBuilder 4.1.0
# https://unity3d.com/unity/features/worldbuilding/probuilder
# 1/28/2020 6:34:43 PM

mtllib ./Rock.mtl
o Rock

g New Game Object
v -1.006253 -2.933666E-07 -0.4742146
v -0.8673964 8.232892E-07 -1.236021
v -0.7728277 2.400666E-06 -0.2196534
v -0.386797 2.682209E-07 -1.590742
v 0.2675035 6.710024E-07 -1.402751
v 0 0 0
v 0.5441579 7.599592E-07 -1.005259
v 0.4153058 1.500453E-06 -0.2566537
v -1.104411 0.8104217 -0.4358918
v -0.9488942 0.8104225 -1.289127
v -0.8384749 0.8104226 -0.1608176
v -0.410621 0.8104217 -1.686415
v 0.3636989 0.8104225 -1.433233
v 0.08220346 0.8104219 0.0952127
v 0.6916535 0.810423 -1.030679
v 0.5877628 0.8104228 -0.1561178
v -0.8978849 1.228758 -0.5544302
v -0.7897516 1.175481 -1.174805
v -0.7012136 1.29178 -0.2887619
v -0.351074 1.317912 -1.422866
v 0.2095277 1.21585 -1.290925
v -0.01729128 1.267901 -0.1071598
v 0.3648771 1.127205 -0.8994016
v 0.3112249 1.181863 -0.3241813
v -0.7589282 1.785175 -0.6205846
v -0.666072 1.712547 -1.137304
v -0.6161467 1.827234 -0.395417
v -0.3238862 1.79865 -1.300765
v 0.1543181 1.791465 -1.192487
v -0.03091113 1.769178 -0.2760497
v 0.3117471 1.6343 -0.9446827
v 0.2415849 1.665108 -0.4136982

vt 1.992824 1.36563
vt 2.131681 0.6038232
vt 2.22625 1.620191
vt 2.61228 0.2491028
vt 3.266581 0.4370933
vt 2.999077 1.839844
vt 3.543235 0.834585
vt 3.414383 1.583191
vt 0.4459811 0
vt 0.0290633 6.111179E-07
vt 0.4669542 0.4435238
vt 0 0.4435242
vt 0.585296 1.474377E-06
vt 0.6174954 0.4435243
vt 0.4107277 0
vt 0.05264532 2.204323E-07
vt 0.423766 0.4435235
vt 0.4588765 0
vt 0.03592711 1.313825E-06
vt 0.5038643 0.4435238
vt 0.6822513 0
vt 0.464714 4.868386E-08
vt 0.6989332 0.4435237
vt 0.4786254 0.443524
vt 0.05502078 4.539374E-07
vt 0.402081 0.6724687
vt 0.06256536 0.6433116
vt 0.5474747 0.7069589
vt 0.3911774 0.7212601
vt 0.08437406 0.6654041
vt 0.4494134 0.6938905
vt 0.07511971 0.7069588
vt 0.4067807 0.6168909
vt 0.09197699 0.6468036
vt 0.3658763 0.976982
vt 0.08308878 0.9372345
vt 0.489105 1
vt 0.3762982 0.9843563
vt 0.1145889 0.9804243
vt 0.4419596 0.9682273
vt 0.1216747 0.9999999
vt 0.431562 0.8944113
vt 0.1409673 0.911272
vt 0.5557796 0
vt 0.2940703 0.05925807
vt 0.3954417 0.5608013
vt 0.7157266 0.4954746
vt 0.6210518 0.6654039
vt 0 0.1478117
vt 0.1788366 0.2196563
vt 0.2638555 0.005385259
vt 0.567179 0.980424
vt 0.7805444 0.4435242
vt 0.6292022 0.646804
vt 0.5910898 0.9112723
vt 0.686163 8.211604E-07
vt 0.6312548 0.6433114
vt 0.563568 0.9372342
vt 0.7183496 0.4435239
vt 0.6737478 3.03775E-07
vt 0.7938673 0.372246
vt 0.7430493 0.08945838
vt 0.2463114 0.4854698
vt 0.2079133 0.1948751

vn 1.096103E-05 -1 5.320974E-07
vn -0.9778205 -0.1100055 -0.1782302
vn -0.7327203 -0.1081314 0.6718845
vn -0.7232754 -0.1136122 0.6810012
vn -0.7138306 -0.119093 0.6901178
vn 0.2746239 -0.104766 -0.9558273
vn 0.2922949 -0.08860699 -0.9519054
vn 0.3099658 -0.07244796 -0.9479834
vn -0.2724038 -0.08497004 0.9584239
vn -0.2696039 -0.0881176 0.9589218
vn -0.2668039 -0.09126516 0.9594198
vn 0.8150294 -0.1180781 -0.5672607
vn 0.7902339 -0.138473 -0.5954257
vn 0.7654383 -0.1588679 -0.6235907
vn 0.9709133 -0.1714631 0.1671164
vn 0.9697573 -0.1959273 0.1410892
vn 0.9686013 -0.2203914 0.1150619
vn -0.9021761 0.3987966 -0.1644371
vn -0.8893741 0.4203289 -0.1775864
vn -0.8765721 0.4418612 -0.1907357
vn -0.669866 0.3631504 0.6476121
vn -0.7101796 0.4289171 0.5429225
vn -0.7504932 0.4946838 0.4382329
vn 0.282649 0.4157547 -0.8644406
vn 0.2808592 0.4132699 -0.8662064
vn 0.2790694 0.4107851 -0.8679723
vn -0.2514431 0.3452942 0.9041838
vn -0.2425707 0.3283775 0.9126289
vn -0.2336984 0.3114609 0.9210739
vn 0.7108366 0.69827 0.08444175
vn 0.7545382 0.6501815 0.0508422
vn 0.7982397 0.6020931 0.01724264
vn -0.958293 0.2172417 -0.1856899
vn -0.9545798 0.2252173 -0.1946703
vn -0.9508668 0.2331929 -0.2036507
vn -0.8069592 0.2360377 0.54139
vn -0.8213896 0.2509405 0.5108681
vn -0.8358199 0.2658433 0.4803462
vn 0.2616905 0.2236626 -0.9388787
vn 0.2406808 0.2042727 -0.9483868
vn 0.2196711 0.1848829 -0.957895
vn -0.2344866 0.3046547 0.9231476
vn -0.2042979 0.2617758 0.9416181
vn -0.1741092 0.2188968 0.9600886
vn 0.9904374 0.111078 0.08182575
vn 0.9848466 0.1372057 0.100872
vn 0.9792557 0.1633334 0.1199182
vn 0.02065217 0.9994769 -0.02488929
vn 0.0553561 0.9972551 0.008755975
vn 0.09006003 0.9950333 0.04240124
vn 0.6888248 0.4589146 -0.5611755
vn 0.6714931 0.7342043 -0.1002054
vn 0.8761681 0.1616902 -0.4540769
vn 0.9325107 0.06599699 -0.3550609
vn 0.3584216 0.5930633 0.7209784
vn 0.5730936 0.4325427 0.6960392
vn 0.5775667 0.2284128 0.7837374
vn 0.5168136 0.285916 0.8069423
vn 0.5137037 -0.2124357 0.8312518
vn 0.4402111 -0.1486849 0.8854982
vn -0.5277487 0.1795046 -0.8302165
vn -0.4671737 0.2423835 -0.8502935
vn -0.5288369 0.4549201 -0.7165049
vn -0.5460734 0.4356673 -0.7155402
vn -0.5901253 -0.1117368 -0.7995418
vn -0.05608939 0.9872684 -0.148846
vn -0.2983349 0.9460843 -0.1261775
vn 0.3998513 0.9107782 0.1029669
vn 0.6691105 0.7417764 0.04537494

usemtl Rock
f 7/7/1 8/8/1 6/6/1
f 5/5/1 7/7/1 6/6/1
f 3/3/1 5/5/1 6/6/1
f 2/2/1 5/5/1 3/3/1
f 4/4/1 5/5/1 2/2/1
f 1/1/1 2/2/1 3/3/1
f 21/48/51 15/24/51 13/23/51
f 21/51/52 23/50/52 15/49/52
f 29/52/53 31/42/53 21/48/53
f 31/42/54 23/33/54 21/48/54
f 24/54/55 14/20/55 16/53/55
f 24/54/56 22/31/56 14/20/56
f 32/55/57 22/31/57 24/54/57
f 32/55/58 30/40/58 22/31/58
f 16/53/59 6/18/59 8/56/59
f 16/53/60 14/20/60 6/18/60
f 26/58/61 20/29/61 18/57/61
f 26/58/62 28/38/62 20/29/62
f 18/57/63 12/17/63 10/59/63
f 18/57/64 20/29/64 12/17/64
f 10/59/65 4/15/65 2/60/65
f 10/59/65 12/17/65 4/15/65
f 27/47/66 26/62/66 25/61/66
f 27/47/67 28/44/67 26/62/67
f 30/46/68 32/63/68 29/45/68
f 32/63/69 31/64/69 29/45/69
f 10/12/2 2/10/2 1/9/2
f 1/9/2 9/11/2 10/12/2
f 9/11/5 1/9/4 3/13/3
f 3/13/3 11/14/4 9/11/5
f 13/12/8 5/16/7 4/15/6
f 4/15/6 12/17/7 13/12/8
f 11/12/11 3/19/10 6/18/9
f 6/18/9 14/20/10 11/12/11
f 15/24/14 7/22/13 5/21/12
f 5/21/12 13/23/13 15/24/14
f 16/12/17 8/25/16 7/22/15
f 7/22/15 15/24/16 16/12/17
f 18/27/20 10/12/19 9/11/18
f 9/11/18 17/26/19 18/27/20
f 17/26/23 9/11/22 11/14/21
f 11/14/21 19/28/22 17/26/23
f 21/30/26 13/12/25 12/17/24
f 12/17/24 20/29/25 21/30/26
f 19/32/29 11/12/28 14/20/27
f 14/20/27 22/31/28 19/32/29
f 24/34/32 16/12/31 15/24/30
f 15/24/30 23/33/31 24/34/32
f 26/36/35 18/27/34 17/26/33
f 17/26/33 25/35/34 26/36/35
f 25/35/38 17/26/37 19/28/36
f 19/28/36 27/37/37 25/35/38
f 29/39/41 21/30/40 20/29/39
f 20/29/39 28/38/40 29/39/41
f 27/41/44 19/32/43 22/31/42
f 22/31/42 30/40/43 27/41/44
f 32/43/47 24/34/46 23/33/45
f 23/33/45 31/42/46 32/43/47
f 29/45/49 28/44/48 27/47/49
f 27/47/49 30/46/50 29/45/49

